<svg xmlns="http://www.w3.org/2000/svg" viewBox="0 0 2859.06 1338.7"><defs><style>.cls-1{fill:#ebf2f9;}.cls-2{fill:#dceaf9;}.cls-3{fill:#d5e7f7;}.cls-4{fill:#c4d9ed;}.cls-5{fill:#adc9e0;}.cls-6{fill:#acd29a;}.cls-7{fill:#88b374;}.cls-8{fill:#a2c5f9;}.cls-9{fill:#afcdfb;}.cls-10{fill:#c7dcf9;}.cls-11{fill:#d2e4f9;}.cls-12{fill:#233862;}.cls-13{fill:#aa3e39;}.cls-14{fill:#b84c42;}.cls-15{fill:#2b478b;}.cls-16{fill:#fff;}.cls-17{fill:#ed985f;}.cls-18{fill:#ffb27d;}.cls-19{fill:#2c3a64;}.cls-20{fill:#739cf3;}.cls-21{fill:#415da5;}.cls-22{fill:#6488d3;}.cls-23{fill:#d8716b;}.cls-24{fill:#aed3ff;opacity:0.5;}.cls-25{fill:#ced4ea;}.cls-25,.cls-28{opacity:0.3;}.cls-26{fill:#e2883d;}.cls-27{fill:#f0d170;}.cls-28,.cls-29{fill:#dc8d39;}.cls-30{fill:#ecf2fd;}.cls-31{fill:#e5eaf5;}.cls-32{fill:#d3652c;}.cls-33{fill:#f1a34f;}.cls-34{fill:#ee9849;}.cls-35{fill:#2e3552;}.cls-36{fill:#5f9aa8;}.cls-37{fill:#80bdcc;}.cls-38{fill:#e88f46;}</style></defs><title>dd</title><g id="Layer_2" data-name="Layer 2"><g id="Layer_1-2" data-name="Layer 1"><path class="cls-1" d="M595.6,460.44c337.87,70.5,139.77-709.16,600-378.22,183,131.61,446.6-27.65,699,59.4,231.8,79.94,174.7,342.26,152.27,428.09-45.3,173.37,180.34,104.23,311.12,178.71,205.16,116.85,25.2,587.92-168.61,589.88s-1733.78-3.91-1733.78-3.91-84.58-66.17-129.49-202.55C234.09,852.26,298.1,398.36,595.6,460.44Z"/><rect class="cls-2" x="583.65" y="1154.6" width="87.54" height="180.39"/><polygon class="cls-3" points="1873.33 648.78 1873.33 569.94 1849.39 569.94 1849.39 434.39 1721.08 434.39 1721.08 569.94 1601.11 569.94 1601.11 384.14 1468.73 334.03 1468.73 492.45 1438.54 492.45 1438.54 281.48 1306.16 325.35 1306.16 642.22 1138.74 642.22 1138.74 829.39 1076.18 829.39 1076.18 876.54 932.49 876.54 932.49 795.35 849.99 795.35 849.99 574.72 748.08 574.72 748.08 981.99 646.17 981.99 646.17 1336.39 748.08 1336.39 835.43 1336.39 849.99 1336.39 932.49 1336.39 979.12 1336.39 1053.81 1336.39 1076.18 1336.39 1138.74 1336.39 1197.5 1336.39 1306.16 1336.39 1339.44 1336.39 1405.64 1336.39 1438.54 1336.39 1468.73 1336.39 1538.03 1336.39 1585.2 1336.39 1601.11 1336.39 1721.08 1336.39 1847.25 1336.39 1849.39 1336.39 1873.33 1336.39 1975.57 1336.39 1975.57 648.78 1873.33 648.78"/><rect class="cls-4" x="1325.94" y="341.4" width="89.3" height="32.7"/><rect class="cls-4" x="1325.94" y="402.83" width="89.3" height="32.7"/><rect class="cls-4" x="1325.94" y="458.11" width="89.3" height="32.7"/><rect class="cls-4" x="748.08" y="723.36" width="103.8" height="50.48"/><rect class="cls-4" x="748.08" y="878.31" width="102.81" height="50.48"/><rect class="cls-4" x="748.08" y="954.56" width="102.81" height="50.48"/><rect class="cls-4" x="746.41" y="1034.34" width="102.81" height="50.48"/><rect class="cls-4" x="746.41" y="1112.47" width="102.81" height="50.48"/><rect class="cls-4" x="746.41" y="1192.25" width="102.81" height="50.48"/><rect class="cls-4" x="1486.16" y="458.11" width="93.93" height="32.7"/><rect class="cls-4" x="1486.16" y="403.33" width="93.93" height="32.7"/><rect class="cls-4" x="1323.67" y="521.7" width="256.42" height="32.7"/><rect class="cls-4" x="1323.67" y="570.87" width="256.42" height="32.7"/><rect class="cls-4" x="1323.67" y="619.71" width="256.42" height="31.45"/><rect class="cls-4" x="748.08" y="802.05" width="102.81" height="50.48"/><rect class="cls-4" x="1164.37" y="672.9" width="22.44" height="31.63"/><rect class="cls-4" x="1206.34" y="672.9" width="22.44" height="31.63"/><rect class="cls-4" x="1247.37" y="672.9" width="22.44" height="31.63"/><rect class="cls-4" x="1286.27" y="672.9" width="22.44" height="31.63"/><rect class="cls-4" x="1325.91" y="672.9" width="22.44" height="31.63"/><rect class="cls-4" x="1366.01" y="672.9" width="22.44" height="31.63"/><rect class="cls-4" x="1407.98" y="672.9" width="22.44" height="31.63"/><rect class="cls-4" x="1449.01" y="672.9" width="22.44" height="31.63"/><rect class="cls-4" x="1487.91" y="672.9" width="22.44" height="31.63"/><rect class="cls-4" x="1527.55" y="672.9" width="22.44" height="31.63"/><rect class="cls-4" x="1568.87" y="672.9" width="22.44" height="31.63"/><rect class="cls-4" x="1610.83" y="672.9" width="22.44" height="31.63"/><rect class="cls-4" x="1651.86" y="672.9" width="22.44" height="31.63"/><rect class="cls-4" x="1690.76" y="672.9" width="22.44" height="31.63"/><rect class="cls-4" x="1730.41" y="672.9" width="22.44" height="31.63"/><rect class="cls-4" x="1812.48" y="672.9" width="22.44" height="31.63"/><rect class="cls-4" x="1853.5" y="672.9" width="22.44" height="31.63"/><rect class="cls-4" x="1892.4" y="672.9" width="22.44" height="31.63"/><rect class="cls-4" x="1932.05" y="672.9" width="22.44" height="31.63"/><rect class="cls-4" x="1164.37" y="728.72" width="22.44" height="31.63"/><rect class="cls-4" x="1206.34" y="728.72" width="22.44" height="31.63"/><rect class="cls-4" x="1247.37" y="728.72" width="22.44" height="31.63"/><rect class="cls-4" x="1286.27" y="728.72" width="22.44" height="31.63"/><rect class="cls-4" x="1325.91" y="728.72" width="22.44" height="31.63"/><rect class="cls-4" x="1366.01" y="728.72" width="22.44" height="31.63"/><rect class="cls-4" x="1407.98" y="728.72" width="22.44" height="31.63"/><rect class="cls-4" x="1449.01" y="728.72" width="22.44" height="31.63"/><rect class="cls-4" x="1487.91" y="728.72" width="22.44" height="31.63"/><rect class="cls-4" x="1527.55" y="728.72" width="22.44" height="31.63"/><rect class="cls-4" x="1568.87" y="728.72" width="22.44" height="31.63"/><rect class="cls-4" x="1610.83" y="728.72" width="22.44" height="31.63"/><rect class="cls-4" x="1651.86" y="728.72" width="22.44" height="31.63"/><rect class="cls-4" x="1690.76" y="728.72" width="22.44" height="31.63"/><rect class="cls-4" x="1730.41" y="728.72" width="22.44" height="31.63"/><rect class="cls-4" x="1770.51" y="728.72" width="22.44" height="31.63"/><rect class="cls-4" x="1812.48" y="728.72" width="22.44" height="31.63"/><rect class="cls-4" x="1853.5" y="728.72" width="22.44" height="31.63"/><rect class="cls-4" x="1892.4" y="728.72" width="22.44" height="31.63"/><rect class="cls-4" x="1932.05" y="728.72" width="22.44" height="31.63"/><rect class="cls-4" x="1164.37" y="783.68" width="22.44" height="31.63"/><rect class="cls-4" x="1206.34" y="783.68" width="22.44" height="31.63"/><rect class="cls-4" x="1247.37" y="783.68" width="22.44" height="31.63"/><rect class="cls-4" x="1286.27" y="783.68" width="22.44" height="31.63"/><rect class="cls-4" x="1325.91" y="783.68" width="22.44" height="31.63"/><rect class="cls-4" x="1366.01" y="783.68" width="22.44" height="31.63"/><rect class="cls-4" x="1407.98" y="783.68" width="22.44" height="31.63"/><rect class="cls-4" x="1449.01" y="783.68" width="22.44" height="31.63"/><rect class="cls-4" x="1487.91" y="783.68" width="22.44" height="31.63"/><rect class="cls-4" x="1527.55" y="783.68" width="22.44" height="31.63"/><rect class="cls-4" x="1568.87" y="783.68" width="22.44" height="31.63"/><rect class="cls-4" x="1610.83" y="783.68" width="22.44" height="31.63"/><rect class="cls-4" x="1651.86" y="783.68" width="22.44" height="31.63"/><rect class="cls-4" x="1690.76" y="783.68" width="22.44" height="31.63"/><rect class="cls-4" x="1730.41" y="783.68" width="22.44" height="31.63"/><rect class="cls-4" x="1770.51" y="783.68" width="22.44" height="31.63"/><rect class="cls-4" x="1812.48" y="783.68" width="22.44" height="31.63"/><rect class="cls-4" x="1853.5" y="783.68" width="22.44" height="31.63"/><rect class="cls-4" x="1892.4" y="783.68" width="22.44" height="31.63"/><rect class="cls-4" x="1932.05" y="783.68" width="22.44" height="31.63"/><rect class="cls-4" x="1164.37" y="842.08" width="22.44" height="31.63"/><rect class="cls-4" x="1206.34" y="842.08" width="22.44" height="31.63"/><rect class="cls-4" x="1247.37" y="842.08" width="22.44" height="31.63"/><rect class="cls-4" x="1286.27" y="842.08" width="22.44" height="31.63"/><rect class="cls-4" x="1325.91" y="842.08" width="22.44" height="31.63"/><rect class="cls-4" x="1366.01" y="842.08" width="22.44" height="31.63"/><rect class="cls-4" x="1407.98" y="842.08" width="22.44" height="31.63"/><rect class="cls-4" x="1449.01" y="842.08" width="22.44" height="31.63"/><rect class="cls-4" x="1487.91" y="842.08" width="22.44" height="31.63"/><rect class="cls-4" x="1527.55" y="842.08" width="22.44" height="31.63"/><rect class="cls-4" x="1568.87" y="842.08" width="22.44" height="31.63"/><rect class="cls-4" x="1610.83" y="842.08" width="22.44" height="31.63"/><rect class="cls-4" x="1651.86" y="842.08" width="22.44" height="31.63"/><rect class="cls-4" x="1690.76" y="842.08" width="22.44" height="31.63"/><rect class="cls-4" x="1730.41" y="842.08" width="22.44" height="31.63"/><rect class="cls-4" x="1770.51" y="842.08" width="22.44" height="31.63"/><rect class="cls-4" x="1812.48" y="842.08" width="22.44" height="31.63"/><rect class="cls-4" x="1853.5" y="842.08" width="22.44" height="31.63"/><rect class="cls-4" x="1892.4" y="842.08" width="22.44" height="31.63"/><rect class="cls-4" x="1932.05" y="842.08" width="22.44" height="31.63"/><rect class="cls-4" x="1164.37" y="897.9" width="22.44" height="31.63"/><rect class="cls-4" x="1206.34" y="897.9" width="22.44" height="31.63"/><rect class="cls-4" x="1247.37" y="897.9" width="22.44" height="31.63"/><rect class="cls-4" x="1286.27" y="897.9" width="22.44" height="31.63"/><rect class="cls-4" x="1325.91" y="897.9" width="22.44" height="31.63"/><rect class="cls-4" x="1366.01" y="897.9" width="22.44" height="31.63"/><rect class="cls-4" x="1407.98" y="897.9" width="22.44" height="31.63"/><rect class="cls-4" x="1449.01" y="897.9" width="22.44" height="31.63"/><rect class="cls-4" x="1487.91" y="897.9" width="22.44" height="31.63"/><rect class="cls-4" x="1527.55" y="897.9" width="22.44" height="31.63"/><rect class="cls-4" x="1568.87" y="897.9" width="22.44" height="31.63"/><rect class="cls-4" x="1610.83" y="897.9" width="22.44" height="31.63"/><rect class="cls-4" x="1651.86" y="897.9" width="22.44" height="31.63"/><rect class="cls-4" x="1690.76" y="897.9" width="22.44" height="31.63"/><rect class="cls-4" x="1730.41" y="897.9" width="22.44" height="31.63"/><rect class="cls-4" x="1770.51" y="897.9" width="22.44" height="31.63"/><rect class="cls-4" x="1812.48" y="897.9" width="22.44" height="31.63"/><rect class="cls-4" x="1892.4" y="897.9" width="22.44" height="31.63"/><rect class="cls-4" x="1853.5" y="897.9" width="22.44" height="31.63"/><rect class="cls-4" x="1932.05" y="897.9" width="22.44" height="31.63"/><rect class="cls-4" x="1164.37" y="952.86" width="22.44" height="31.63"/><rect class="cls-4" x="1206.34" y="952.86" width="22.44" height="31.63"/><rect class="cls-4" x="1247.37" y="952.86" width="22.44" height="31.63"/><rect class="cls-4" x="1286.27" y="952.86" width="22.44" height="31.63"/><rect class="cls-4" x="1325.91" y="952.86" width="22.44" height="31.63"/><rect class="cls-4" x="1366.01" y="952.86" width="22.44" height="31.63"/><rect class="cls-4" x="1407.98" y="952.86" width="22.44" height="31.63"/><rect class="cls-4" x="1449.01" y="952.86" width="22.44" height="31.63"/><rect class="cls-4" x="1487.91" y="952.86" width="22.44" height="31.63"/><rect class="cls-4" x="1527.55" y="952.86" width="22.44" height="31.63"/><rect class="cls-4" x="1568.87" y="952.86" width="22.44" height="31.63"/><rect class="cls-4" x="1610.83" y="952.86" width="22.44" height="31.63"/><rect class="cls-4" x="1651.86" y="952.86" width="22.44" height="31.63"/><rect class="cls-4" x="1690.76" y="952.86" width="22.44" height="31.63"/><rect class="cls-4" x="1730.41" y="952.86" width="22.44" height="31.63"/><rect class="cls-4" x="1770.51" y="952.86" width="22.44" height="31.63"/><rect class="cls-4" x="1812.48" y="952.86" width="22.44" height="31.63"/><rect class="cls-4" x="1892.4" y="952.86" width="22.44" height="31.63"/><rect class="cls-4" x="1932.05" y="952.86" width="22.44" height="31.63"/><rect class="cls-4" x="2142.62" y="890.33" width="49.93" height="337.76"/><rect class="cls-5" x="2089.02" y="1095.69" width="53.6" height="234.61"/><polygon class="cls-4" points="969 795.2 969 729.41 971.7 729.41 971.7 795.2 1008.73 795.2 1008.73 876.4 932.48 876.4 932.48 795.2 969 795.2"/><polygon class="cls-4" points="748.08 625.29 748.08 574.81 769.54 574.81 769.54 552.85 772.24 552.85 772.24 574.81 850.45 574.81 851.88 574.81 866.68 574.81 866.68 552.85 869.38 552.85 869.38 574.81 888.36 574.81 888.36 795.42 850.45 795.42 850.45 700.37 748.08 700.37 748.08 649.89 850.45 649.89 850.45 625.29 748.08 625.29"/><polygon class="cls-3" points="1856.34 939.49 1856.34 1224.22 2142.61 1224.22 2142.61 890.33 1856.34 939.49"/><rect class="cls-3" x="1856.33" y="1094.8" width="357.14" height="240.19"/><rect class="cls-4" x="1856.33" y="952.66" width="357.14" height="78.06"/><rect class="cls-4" x="1880.65" y="1159.93" width="18.34" height="25.85"/><rect class="cls-4" x="1914.95" y="1159.93" width="18.34" height="25.85"/><rect class="cls-4" x="1948.48" y="1159.93" width="18.34" height="25.85"/><rect class="cls-4" x="1980.28" y="1159.93" width="18.34" height="25.85"/><rect class="cls-4" x="2012.68" y="1159.93" width="18.34" height="25.85"/><rect class="cls-4" x="2045.46" y="1159.93" width="18.34" height="25.85"/><rect class="cls-4" x="2079.76" y="1159.93" width="18.34" height="25.85"/><rect class="cls-4" x="2113.29" y="1159.93" width="18.34" height="25.85"/><rect class="cls-4" x="2145.08" y="1159.93" width="18.34" height="25.85"/><rect class="cls-4" x="2177.49" y="1159.93" width="18.34" height="25.85"/><rect class="cls-4" x="1880.65" y="1205.55" width="18.34" height="25.85"/><rect class="cls-4" x="1914.95" y="1205.55" width="18.34" height="25.85"/><rect class="cls-4" x="1948.48" y="1205.55" width="18.34" height="25.85"/><rect class="cls-4" x="1980.28" y="1205.55" width="18.34" height="25.85"/><rect class="cls-4" x="2012.68" y="1205.55" width="18.34" height="25.85"/><rect class="cls-4" x="2045.46" y="1205.55" width="18.34" height="25.85"/><rect class="cls-4" x="2079.76" y="1205.55" width="18.34" height="25.85"/><rect class="cls-4" x="2113.29" y="1205.55" width="18.34" height="25.85"/><rect class="cls-4" x="2145.08" y="1205.55" width="18.34" height="25.85"/><rect class="cls-4" x="2177.49" y="1205.55" width="18.34" height="25.85"/><rect class="cls-4" x="1880.65" y="1068" width="18.34" height="25.85"/><rect class="cls-4" x="1914.95" y="1068" width="18.34" height="25.85"/><rect class="cls-4" x="1948.48" y="1068" width="18.34" height="25.85"/><rect class="cls-4" x="1980.28" y="1068" width="18.34" height="25.85"/><rect class="cls-4" x="2012.68" y="1068" width="18.34" height="25.85"/><rect class="cls-4" x="2045.46" y="1068" width="18.34" height="25.85"/><rect class="cls-4" x="2079.76" y="1068" width="18.34" height="25.85"/><rect class="cls-4" x="2113.29" y="1068" width="18.34" height="25.85"/><rect class="cls-4" x="1880.65" y="1113.62" width="18.34" height="25.85"/><rect class="cls-4" x="1914.95" y="1113.62" width="18.34" height="25.85"/><rect class="cls-4" x="1948.48" y="1113.62" width="18.34" height="25.85"/><rect class="cls-4" x="1980.28" y="1113.62" width="18.34" height="25.85"/><rect class="cls-4" x="2012.68" y="1113.62" width="18.34" height="25.85"/><rect class="cls-4" x="2045.46" y="1113.62" width="18.34" height="25.85"/><rect class="cls-4" x="2079.76" y="1113.62" width="18.34" height="25.85"/><rect class="cls-4" x="2113.29" y="1113.62" width="18.34" height="25.85"/><rect class="cls-4" x="2145.08" y="1113.62" width="18.34" height="25.85"/><rect class="cls-4" x="2177.49" y="1113.62" width="18.34" height="25.85"/><rect class="cls-4" x="1880.65" y="1250.47" width="18.34" height="25.85"/><rect class="cls-4" x="1914.95" y="1250.47" width="18.34" height="25.85"/><rect class="cls-4" x="1948.48" y="1250.47" width="18.34" height="25.85"/><rect class="cls-4" x="1980.28" y="1250.47" width="18.34" height="25.85"/><rect class="cls-4" x="2012.68" y="1250.47" width="18.34" height="25.85"/><rect class="cls-4" x="2045.46" y="1250.47" width="18.34" height="25.85"/><rect class="cls-4" x="2079.76" y="1250.47" width="18.34" height="25.85"/><rect class="cls-4" x="2113.29" y="1250.47" width="18.34" height="25.85"/><rect class="cls-4" x="2145.08" y="1250.47" width="18.34" height="25.85"/><rect class="cls-4" x="2177.49" y="1250.47" width="18.34" height="25.85"/><rect class="cls-4" x="1880.65" y="1290.47" width="18.34" height="25.85"/><rect class="cls-4" x="1914.95" y="1290.47" width="18.34" height="25.85"/><rect class="cls-4" x="1948.48" y="1290.47" width="18.34" height="25.85"/><rect class="cls-4" x="1980.28" y="1290.47" width="18.34" height="25.85"/><rect class="cls-4" x="2012.68" y="1290.47" width="18.34" height="25.85"/><rect class="cls-4" x="2045.46" y="1290.47" width="18.34" height="25.85"/><rect class="cls-4" x="2079.76" y="1290.47" width="18.34" height="25.85"/><rect class="cls-4" x="2113.29" y="1290.47" width="18.34" height="25.85"/><rect class="cls-4" x="2145.08" y="1290.47" width="18.34" height="25.85"/><rect class="cls-4" x="2177.49" y="1290.47" width="18.34" height="25.85"/><rect class="cls-3" x="2118.13" y="836.71" width="5.29" height="67.7"/><rect class="cls-3" x="1883.58" y="974.59" width="15.41" height="26.67"/><rect class="cls-3" x="2036.6" y="974.59" width="15.41" height="26.67"/><rect class="cls-3" x="2158.33" y="974.59" width="15.41" height="26.67"/><rect class="cls-4" x="916.23" y="1034.34" width="513.97" height="300.65" transform="translate(2346.43 2369.33) rotate(180)"/><polygon class="cls-4" points="1093.29 1048.07 986.04 1048.07 986.04 954.56 1093.29 995.63 1093.29 1048.07"/><polygon class="cls-4" points="1621.89 1334.99 1867.34 1334.99 1867.34 1068 1621.89 1152.97 1621.89 1334.99"/><rect class="cls-3" x="1628.38" y="1161.81" width="232.48" height="8.25" transform="translate(3489.23 2331.86) rotate(180)"/><rect class="cls-3" x="1628.38" y="1188.32" width="232.48" height="8.25" transform="translate(3489.23 2384.9) rotate(180)"/><rect class="cls-3" x="1628.38" y="1214.84" width="232.48" height="8.25" transform="translate(3489.23 2437.94) rotate(180)"/><rect class="cls-3" x="1628.38" y="1241.36" width="232.48" height="8.25" transform="translate(3489.23 2490.97) rotate(180)"/><rect class="cls-3" x="1628.38" y="1267.88" width="232.48" height="8.25" transform="translate(3489.23 2544.01) rotate(180)"/><rect class="cls-3" x="1628.38" y="1294.4" width="232.48" height="8.25" transform="translate(3489.23 2597.05) rotate(180)"/><rect class="cls-4" x="965.42" y="954.56" width="20.63" height="79.78" transform="translate(1951.46 1988.91) rotate(180)"/><rect class="cls-4" x="1831.16" y="445.52" width="14.22" height="120.66" transform="translate(3676.54 1011.69) rotate(180)"/><rect class="cls-4" x="1802.87" y="445.52" width="14.22" height="120.66" transform="translate(3619.97 1011.69) rotate(180)"/><rect class="cls-4" x="1774.97" y="445.52" width="14.22" height="120.66" transform="translate(3564.16 1011.69) rotate(180)"/><rect class="cls-4" x="1746.09" y="445.52" width="14.22" height="120.66" transform="translate(3506.4 1011.69) rotate(180)"/><path class="cls-6" d="M2019.56,1051.83a77.8,77.8,0,0,0,2.61-20.19c0-31.73-18.37-57.44-41-57.44a29.92,29.92,0,0,0-9.65,1.61c-3.68-85.87-41.28-153.37-87.13-153.37-43.67,0-79.85,61.23-86.38,141.24-32.49,22.06-54.75,67.23-54.75,119.36a168.76,168.76,0,0,0,13.88,68.07c-30.15,18.58-49.35,46.59-49.35,77.92,0,55.93,61.14,101.26,136.56,101.26,56.45,0,104.9-25.4,125.69-61.63a78,78,0,0,0,17.87,2.09c51.33,0,92.93-50.52,92.93-112.83C2080.81,1109.12,2055.29,1067.56,2019.56,1051.83Z"/><path class="cls-7" d="M2019.56,1051.83s-90.41-35.2-159.33,26.83-116.86-35.8-93.86-81.25c-14.45,23.2-23.14,53.05-23.14,85.63a168.76,168.76,0,0,0,13.88,68.07c-30.15,18.58-49.35,46.59-49.35,77.92,0,55.93,61.14,101.26,136.56,101.26,42.34,0,85.17,5.26,112.72-7.4,22.8-10.47,48.11-14.22,72.8-9.78,14.17,2.54,26.37,4.59,28.8,4.59,51.32,0,22.17-97.47,22.17-159.78C2080.81,1109.12,2055.29,1067.56,2019.56,1051.83Z"/><path class="cls-6" d="M2272.14,995.39a112.27,112.27,0,0,1-2.61-24.29c0-38.15,18.37-69.09,41-69.09a25.6,25.6,0,0,1,9.64,1.94c3.69-103.27,41.29-184.45,87.13-184.45,43.67,0,79.86,73.64,86.38,169.87,32.49,26.53,54.76,80.85,54.76,143.56,0,29.89-5.07,57.88-13.89,81.86,30.15,22.34,49.35,56,49.35,93.72,0,67.26-61.14,121.78-136.55,121.78-56.46,0-104.9-30.55-125.7-74.13a64.94,64.94,0,0,1-17.87,2.52c-51.32,0-92.93-60.75-92.93-135.69C2210.89,1064.29,2236.42,1014.3,2272.14,995.39Z"/><path class="cls-7" d="M2534.59,1114.79c8.82-24,13.89-52,13.89-81.86,0-7.53-.33-14.92-.95-22.17-126.14,8.67-121.12,135.16-121.12,135.16s-104.34-44-139.12,17.95,34.4,92.29,34.4,92.29c20.8,43.58,69.24,74.13,125.7,74.13,75.41,0,136.55-54.52,136.55-121.78C2583.94,1170.82,2564.74,1137.13,2534.59,1114.79Z"/><path class="cls-6" d="M2322.94,1035.93c-6.52-76.71-42.71-135.4-86.38-135.4-45.84,0-83.44,64.7-87.13,147a31.27,31.27,0,0,0-9.64-1.54c-22.67,0-41,24.65-41,55.06a72.09,72.09,0,0,0,2.61,19.36c-35.72,15.08-61.25,54.92-61.25,101.71,0,59.73,41.61,108.15,92.93,108.15,41.17,0,76.08-31.15,88.28-74.3,16.08,14.23,35.57,22.57,56.57,22.57,55.12,0,99.81-57.4,99.81-128.21C2377.7,1100.37,2355.43,1057.08,2322.94,1035.93Z"/><path class="cls-7" d="M2302.67,1094.31c-93.2-12.56-107.05,88.89-107.05,88.89-110.41-50.24-155.39,44.44-155.39,44.44h0c2.46,57.18,43.07,102.65,92.81,102.65,25,0,47.68-11.48,64.38-30.16a71.22,71.22,0,0,1,66.07-22.9,78.16,78.16,0,0,0,14.4,1.33c33.12,0,62.47-20.73,80.62-52.63C2359.13,1223.92,2395.08,1106.76,2302.67,1094.31Z"/><path class="cls-6" d="M626.91,1209.38C266.85,1143,252.57,1332.17,252.57,1332.17H1352.24C897.58,1332.56,987,1275.76,626.91,1209.38Z"/><path class="cls-7" d="M2305.82,1236.67c-81.27,27.61-228.53,91-400.38,42.8s-378.38-12.64-634,39.44S695.84,1277.25,496,1277s-322.85,58.18-322.85,58.18l2513.91-3.59C2578,1208.41,2430.82,1194.2,2305.82,1236.67Z"/><path class="cls-8" d="M585.34,163.2h-11l.1-.86L577.74,133a1.88,1.88,0,0,1,1.86-1.66,2.07,2.07,0,0,1,.35,0,2.93,2.93,0,0,1,2.59,2.63Z"/><path class="cls-9" d="M575.38,156.55H575L577.74,133a1.88,1.88,0,0,1,1.86-1.66,2.07,2.07,0,0,1,.35,0,1.93,1.93,0,0,1,.3.27,2.94,2.94,0,0,1,.78,2l.16,16.93A6,6,0,0,1,575.38,156.55Z"/><rect class="cls-8" x="571.1" y="293.7" width="21.27" height="936.18"/><rect class="cls-9" x="571.1" y="293.7" width="9.82" height="936.18"/><rect class="cls-8" x="547.86" y="1080.48" width="67.74" height="247.7"/><rect class="cls-9" x="547.86" y="1080.48" width="40.38" height="247.7"/><path class="cls-8" d="M618.76,177.33c0,11.57-17.43,20.94-38.93,20.94-1.64,0-3.26-.05-4.85-.16-19.21-1.28-34.08-10.1-34.08-20.78s14.87-19.49,34.08-20.77c1.59-.11,3.21-.17,4.85-.17C601.33,156.39,618.76,165.77,618.76,177.33Z"/><polygon class="cls-9" points="615.53 312.16 547.79 312.16 523.9 197.53 635.75 197.53 615.53 312.16"/><rect class="cls-8" x="517.86" y="188.89" width="123.93" height="11"/><path class="cls-8" d="M559,1080.48h43.29l-6.34-19.15a4.14,4.14,0,0,0-3.95-2.84H571.69a5.42,5.42,0,0,0-5,3.35Z"/><path class="cls-9" d="M598.85,176.32h-.29c-.67-8.88-10.19-16.44-23.58-19.76-18.6,1.24-33.14,9.54-34,19.76h-6.31l-8.85,12.57h-7.92v11h77.91v-11h11.48Z"/><polygon class="cls-10" points="531.91 203.12 627.43 203.12 608.78 306.15 553.92 306.15 531.91 203.12"/><path class="cls-10" d="M543.47,178.56s7.28-15.84,21.65-15.36c0,0-9.14,8.11-8.3,15.36S543.47,178.56,543.47,178.56Z"/><polygon class="cls-8" points="633.88 188.89 525.78 188.89 534.63 176.32 625.47 176.32 633.88 188.89"/><polygon class="cls-11" points="538.25 206.71 560.14 206.71 566.52 302.93 560.14 302.93 538.25 206.71"/><path class="cls-12" d="M1452,1270.19h-7.82c-10.5,0-19,14-19,31.35s8.5,31.35,19,31.35H1452c10.5,0,19-14,19-31.35S1462.54,1270.19,1452,1270.19Z"/><path class="cls-13" d="M1429.89,1313.32H1324.71a20.59,20.59,0,0,1-20.57-19.46l-18.92-313.37h184.16l-18.93,313.37A20.59,20.59,0,0,1,1429.89,1313.32Z"/><path class="cls-14" d="M1459.89,1313.32H1354.71c-10.94,0-20.57-1.64-20.57-19.46l-18.92-313.37h184.16l-18.93,313.37C1480.45,1313.32,1470.82,1313.32,1459.89,1313.32Z"/><path class="cls-12" d="M1288.5,956.95h173.26a12.12,12.12,0,0,1,12.12,12.12v11.37a0,0,0,0,1,0,0h-197.5a0,0,0,0,1,0,0V969.07A12.12,12.12,0,0,1,1288.5,956.95Z"/><path class="cls-15" d="M1324.5,956.95h173.26a12.12,12.12,0,0,1,12.12,12.12v11.37a0,0,0,0,1,0,0h-197.5a0,0,0,0,1,0,0V969.07A12.12,12.12,0,0,1,1324.5,956.95Z"/><path class="cls-15" d="M1312,1270.19h-7.82c-10.5,0-19,14-19,31.35s8.5,31.35,19,31.35H1312c10.5,0,19-14,19-31.35S1322.54,1270.19,1312,1270.19Z"/><path class="cls-12" d="M1318.15,1301.54c0,12.7-6.24,23-13.93,23s-13.94-10.3-13.94-23,6.24-23,13.94-23S1318.15,1288.84,1318.15,1301.54Z"/><path class="cls-16" d="M1385.54,1243.89q0-6.92,3.25-10.73t9.54-3.83q6.29,0,9.59,3.83t3.31,10.73V1253H1424a1.55,1.55,0,0,1,1.54,1.54v4.62a1.57,1.57,0,0,1-1.54,1.55h-36.89a1.55,1.55,0,0,1-1.54-1.55Zm18.56,9.14v-8.85a9.27,9.27,0,0,0-1.29-5.2c-.85-1.29-2.35-1.94-4.48-1.94s-3.61.65-4.43,1.94a9.71,9.71,0,0,0-1.22,5.2V1253Z"/><path class="cls-16" d="M1418.37,1196.55a1.44,1.44,0,0,1,.46-1.08,1.46,1.46,0,0,1,1.08-.46H1424a1.57,1.57,0,0,1,1.54,1.54v25a1.55,1.55,0,0,1-1.54,1.54h-36.89a1.54,1.54,0,0,1-1.54-1.54v-4.62a1.54,1.54,0,0,1,1.54-1.54h31.29Z"/><path class="cls-16" d="M1385.54,1170.74a1.81,1.81,0,0,1,.48-1.37,4.28,4.28,0,0,1,1.46-.8l36.09-14a1.2,1.2,0,0,1,.4-.06,1.57,1.57,0,0,1,1.54,1.55v4.11a2.13,2.13,0,0,1-.49,1.6,2.77,2.77,0,0,1-.94.62l-6.34,2.46v18l6.34,2.46a2.67,2.67,0,0,1,.94.63,2.1,2.1,0,0,1,.49,1.6v4.11a1.57,1.57,0,0,1-1.54,1.54,1.2,1.2,0,0,1-.4-.06l-36.09-14a4.12,4.12,0,0,1-1.46-.8,1.8,1.8,0,0,1-.48-1.37Zm25.07-3.14-16.28,6.28,16.28,6.28Z"/><path class="cls-16" d="M1385,1136.14a20.37,20.37,0,0,1,1-6.74,17.11,17.11,0,0,1,2.57-4.86,11.32,11.32,0,0,1,3.4-2.94,8.91,8.91,0,0,1,3.51-1.11,1.28,1.28,0,0,1,1.12.43,1.64,1.64,0,0,1,.43,1.11v4a2.38,2.38,0,0,1-.38,1.46,3.8,3.8,0,0,1-1,.88,7.5,7.5,0,0,0-2.48,2.6,10.16,10.16,0,0,0-1.06,5.17,12.24,12.24,0,0,0,.32,2.82,8,8,0,0,0,.91,2.34,4.81,4.81,0,0,0,1.46,1.57,3.36,3.36,0,0,0,1.94.58,3.76,3.76,0,0,0,2.14-.55,4.29,4.29,0,0,0,1.43-1.82,18.56,18.56,0,0,0,1.11-3.4q.51-2.12,1.2-5.26a38.39,38.39,0,0,1,1.74-5.91,14,14,0,0,1,2.4-4,8.84,8.84,0,0,1,3.23-2.34,10.73,10.73,0,0,1,4.17-.77,10.16,10.16,0,0,1,4.76,1.14,10.93,10.93,0,0,1,3.77,3.25,16.54,16.54,0,0,1,2.49,5.2,24.29,24.29,0,0,1,.91,6.91,24,24,0,0,1-.77,6.11,17.81,17.81,0,0,1-2.23,5.17,12.27,12.27,0,0,1-3.51,3.62,9.22,9.22,0,0,1-4.57,1.55,1.29,1.29,0,0,1-1.11-.43,1.62,1.62,0,0,1-.43-1.12v-4a2.78,2.78,0,0,1,.34-1.49,2.68,2.68,0,0,1,1-.85,11.44,11.44,0,0,0,1.49-1,5.35,5.35,0,0,0,1.31-1.55,9.33,9.33,0,0,0,.94-2.42,14.85,14.85,0,0,0,.37-3.63,21,21,0,0,0-.25-3.31,9.91,9.91,0,0,0-.86-2.8,5.8,5.8,0,0,0-1.49-1.94,3.32,3.32,0,0,0-2.19-.74,2.76,2.76,0,0,0-2.06.8,6.42,6.42,0,0,0-1.37,2.42,35.6,35.6,0,0,0-1.09,4c-.34,1.6-.77,3.44-1.31,5.54a28.66,28.66,0,0,1-1.63,5,11.79,11.79,0,0,1-2.31,3.55,8.72,8.72,0,0,1-3.22,2.08,12.76,12.76,0,0,1-4.43.69A10.06,10.06,0,0,1,1392,1150a11.28,11.28,0,0,1-3.71-3.14,15.31,15.31,0,0,1-2.43-4.77A19.43,19.43,0,0,1,1385,1136.14Z"/><path class="cls-16" d="M1385.54,1086.63a1.54,1.54,0,0,1,1.54-1.54h4.05a1.55,1.55,0,0,1,1.55,1.54v10.28H1424a1.55,1.55,0,0,1,1.54,1.54v4.62a1.57,1.57,0,0,1-1.54,1.55h-31.29v10.27a1.57,1.57,0,0,1-1.55,1.55h-4.05a1.55,1.55,0,0,1-1.54-1.55Z"/><path class="cls-16" d="M1425.51,1077.83a1.47,1.47,0,0,1-.46,1.09,1.48,1.48,0,0,1-1.08.46h-36.89a1.52,1.52,0,0,1-1.09-.46,1.5,1.5,0,0,1-.45-1.09v-4.62a1.54,1.54,0,0,1,1.54-1.54H1424a1.55,1.55,0,0,1,1.54,1.54Z"/><path class="cls-16" d="M1412.83,1038.21a1.69,1.69,0,0,1-1.11-.6,1.71,1.71,0,0,1-.37-1.06v-4.63a1.63,1.63,0,0,1,.43-1.11,1.25,1.25,0,0,1,1.11-.43,14.9,14.9,0,0,1,4.68,1.17,12.36,12.36,0,0,1,4.23,3.06,16.2,16.2,0,0,1,3.08,5.19,21.38,21.38,0,0,1,1.2,7.6,19.25,19.25,0,0,1-1.17,7,14.75,14.75,0,0,1-3.25,5.13,14.56,14.56,0,0,1-5,3.29,20.53,20.53,0,0,1-6.34,1.4c-1.45.07-3,.11-4.8.11s-3.35,0-4.79-.11a20.46,20.46,0,0,1-6.34-1.4,14.56,14.56,0,0,1-5-3.29,14.75,14.75,0,0,1-3.25-5.13,19.25,19.25,0,0,1-1.17-7,21.38,21.38,0,0,1,1.2-7.6,15.84,15.84,0,0,1,3.08-5.19,12.24,12.24,0,0,1,4.25-3.06,15.2,15.2,0,0,1,4.66-1.17,1.26,1.26,0,0,1,1.11.43,1.63,1.63,0,0,1,.43,1.11v4.63a1.79,1.79,0,0,1-.37,1.08,1.57,1.57,0,0,1-1.12.63,6.33,6.33,0,0,0-2.22.8,6.69,6.69,0,0,0-1.94,1.72,8.49,8.49,0,0,0-1.4,2.74,12.48,12.48,0,0,0-.55,3.88,10,10,0,0,0,.69,3.88,8.16,8.16,0,0,0,1.83,2.77,7.63,7.63,0,0,0,2.74,1.71,11.77,11.77,0,0,0,3.37.72c1.44.08,3,.11,4.79.11s3.35,0,4.8-.11a11.62,11.62,0,0,0,3.4-.72,7.68,7.68,0,0,0,2.71-1.71,8.16,8.16,0,0,0,1.83-2.77,10.23,10.23,0,0,0,.68-3.88,12.49,12.49,0,0,0-.54-3.88,9.1,9.1,0,0,0-1.4-2.77,6.64,6.64,0,0,0-1.94-1.75A6.35,6.35,0,0,0,1412.83,1038.21Z"/><path class="cls-12" d="M1247.4,1270.19h-7.83c-10.5,0-19,14-19,31.35s8.5,31.35,19,31.35h7.83c10.49,0,19-14,19-31.35S1257.89,1270.19,1247.4,1270.19Z"/><path class="cls-7" d="M1225.24,1313.32H1120.06a20.6,20.6,0,0,1-20.57-19.46l-18.92-313.37h184.16l-18.93,313.37A20.59,20.59,0,0,1,1225.24,1313.32Z"/><path class="cls-6" d="M1255.24,1313.32H1150.06c-10.94,0-20.57-1.64-20.57-19.46l-18.92-313.37h184.16l-18.93,313.37C1275.8,1313.32,1266.17,1313.32,1255.24,1313.32Z"/><path class="cls-12" d="M1083.85,956.95h173.26a12.12,12.12,0,0,1,12.12,12.12v11.37a0,0,0,0,1,0,0h-197.5a0,0,0,0,1,0,0V969.07A12.12,12.12,0,0,1,1083.85,956.95Z"/><path class="cls-15" d="M1119.85,956.95h173.26a12.12,12.12,0,0,1,12.12,12.12v11.37a0,0,0,0,1,0,0h-197.5a0,0,0,0,1,0,0V969.07A12.12,12.12,0,0,1,1119.85,956.95Z"/><path class="cls-15" d="M1107.4,1270.19h-7.83c-10.5,0-19,14-19,31.35s8.5,31.35,19,31.35h7.83c10.49,0,19-14,19-31.35S1117.89,1270.19,1107.4,1270.19Z"/><ellipse class="cls-12" cx="1099.57" cy="1301.54" rx="13.94" ry="23"/><path class="cls-16" d="M1193.79,1266.11a20.46,20.46,0,0,1-6-1.23,13.8,13.8,0,0,1-4.91-3.11,14.87,14.87,0,0,1-3.32-5.14,22.51,22.51,0,0,1,0-14.56,14.21,14.21,0,0,1,3.31-5.14,14.38,14.38,0,0,1,4.91-3.14,19.11,19.11,0,0,1,6-1.26q1.1-.06,2.4-.09c.88,0,1.78,0,2.71,0s1.84,0,2.72,0,1.67,0,2.39.09a19.91,19.91,0,0,1,6,1.23,13.75,13.75,0,0,1,4.91,3.11,14.37,14.37,0,0,1,3.28,5.17,22.77,22.77,0,0,1,0,14.59,14.51,14.51,0,0,1-3.28,5.14,13.89,13.89,0,0,1-4.91,3.11,20.53,20.53,0,0,1-6,1.23l-2.39.08c-.88,0-1.78,0-2.72,0s-1.83,0-2.71,0Zm.29-25.87a9.08,9.08,0,0,0,0,18.16c1.44.07,3.05.11,4.82.11s3.38,0,4.83-.11a8.92,8.92,0,0,0,6.34-2.66,10.41,10.41,0,0,0,0-12.85,8.91,8.91,0,0,0-6.34-2.65q-2.18-.12-4.83-.12C1197.13,1240.12,1195.52,1240.16,1194.08,1240.24Z"/><path class="cls-16" d="M1178.89,1208.72q0-7.14,3.31-10.85t9.19-3.71a12.71,12.71,0,0,1,7.11,1.91,11.29,11.29,0,0,1,4.37,5.62l14.11-7.88a1.42,1.42,0,0,1,.62-.17,1.24,1.24,0,0,1,.89.37,1.22,1.22,0,0,1,.37.89v4.85a2.33,2.33,0,0,1-.54,1.69,4.07,4.07,0,0,1-1,.77l-13.31,7.48v7.59h13.31a1.48,1.48,0,0,1,1.08.46,1.46,1.46,0,0,1,.46,1.08v4.63a1.57,1.57,0,0,1-1.54,1.54h-36.89a1.55,1.55,0,0,1-1.54-1.54Zm18,8.56V1209a10.08,10.08,0,0,0-1.15-5.19c-.76-1.3-2.2-1.94-4.34-1.94s-3.55.64-4.28,1.94A10.66,10.66,0,0,0,1186,1209v8.28Z"/><path class="cls-16" d="M1193.68,1188.16a18.12,18.12,0,0,1-6.26-1.26,13.39,13.39,0,0,1-4.85-3.31,14.84,14.84,0,0,1-3.14-5.34,22.31,22.31,0,0,1-1.11-7.39,22.58,22.58,0,0,1,1.28-8.2,16.27,16.27,0,0,1,3.09-5.14,10.53,10.53,0,0,1,3.71-2.68,11.56,11.56,0,0,1,3.22-.88,1.28,1.28,0,0,1,1.12.42,1.68,1.68,0,0,1,.42,1.12v4.62a1.5,1.5,0,0,1-.31,1,2,2,0,0,1-.66.54q-.23.12-1,.6a6.55,6.55,0,0,0-1.6,1.55,10.42,10.42,0,0,0-1.49,2.76,12.11,12.11,0,0,0-.65,4.29,9.86,9.86,0,0,0,2.31,6.85,8.45,8.45,0,0,0,6.19,2.74c1.45.08,3,.12,4.66.12s3.21,0,4.65-.12c3.16-.11,5.45-1,6.88-2.74a10.34,10.34,0,0,0,2.14-6.85,15.71,15.71,0,0,0-.45-3.88,8.1,8.1,0,0,0-1.49-3.06,6.77,6.77,0,0,0-2.71-2,10.71,10.71,0,0,0-4.14-.71H1203v7a1.55,1.55,0,0,1-1.54,1.55h-4a1.55,1.55,0,0,1-1.54-1.55V1155a1.55,1.55,0,0,1,1.54-1.54h6.28a17.86,17.86,0,0,1,6.31,1.08,13.36,13.36,0,0,1,5,3.26,15,15,0,0,1,3.25,5.42,25.39,25.39,0,0,1,0,15.14,14.48,14.48,0,0,1-3.2,5.31,13.53,13.53,0,0,1-4.94,3.22,19.29,19.29,0,0,1-6.31,1.23q-1.08.06-2.4.09c-.87,0-1.77,0-2.68,0s-1.81,0-2.68,0S1194.4,1188.2,1193.68,1188.16Z"/><path class="cls-16" d="M1178.89,1128.26a1.8,1.8,0,0,1,.48-1.37,4.12,4.12,0,0,1,1.46-.8l36.09-14a1.2,1.2,0,0,1,.4-.06,1.57,1.57,0,0,1,1.54,1.54v4.11a2.14,2.14,0,0,1-.48,1.6,2.79,2.79,0,0,1-1,.63l-6.34,2.46v18l6.34,2.46a2.9,2.9,0,0,1,1,.62,2.17,2.17,0,0,1,.48,1.6v4.12a1.57,1.57,0,0,1-1.54,1.54,1.2,1.2,0,0,1-.4-.06l-36.09-14a4.12,4.12,0,0,1-1.46-.8,1.8,1.8,0,0,1-.48-1.37Zm25.07-3.14-16.28,6.28,16.28,6.28Z"/><path class="cls-16" d="M1218.86,1080.92a2,2,0,0,1-.51,1.49c-.35.34-.61.59-.8.74l-23.76,16h23.53a1.55,1.55,0,0,1,1.54,1.54v4.62a1.57,1.57,0,0,1-1.54,1.55h-36.89a1.55,1.55,0,0,1-1.54-1.55v-4a2,2,0,0,1,.51-1.49c.35-.34.61-.59.8-.74l23.76-16h-23.53a1.55,1.55,0,0,1-1.54-1.54v-4.63a1.55,1.55,0,0,1,1.54-1.54h36.89a1.57,1.57,0,0,1,1.54,1.54Z"/><path class="cls-16" d="M1218.86,1064.93a1.55,1.55,0,0,1-1.54,1.54h-36.89a1.54,1.54,0,0,1-1.54-1.54v-4.62a1.54,1.54,0,0,1,1.54-1.54h36.89a1.55,1.55,0,0,1,1.54,1.54Z"/><path class="cls-16" d="M1206.18,1025.3a1.61,1.61,0,0,1-1.11-.6,1.66,1.66,0,0,1-.37-1.05V1019a1.6,1.6,0,0,1,.43-1.11,1.25,1.25,0,0,1,1.11-.43,14.63,14.63,0,0,1,4.68,1.17,12.36,12.36,0,0,1,4.23,3.06,16,16,0,0,1,3.08,5.19,21.38,21.38,0,0,1,1.2,7.6,19.19,19.19,0,0,1-1.17,7,14.3,14.3,0,0,1-8.25,8.43,20.75,20.75,0,0,1-6.34,1.4c-1.45.07-3,.11-4.8.11s-3.35,0-4.79-.11a20.75,20.75,0,0,1-6.34-1.4,14.3,14.3,0,0,1-8.25-8.43,19.19,19.19,0,0,1-1.17-7,21.38,21.38,0,0,1,1.2-7.6,16,16,0,0,1,3.08-5.19,12.24,12.24,0,0,1,4.25-3.06,14.92,14.92,0,0,1,4.66-1.17,1.26,1.26,0,0,1,1.11.43,1.6,1.6,0,0,1,.43,1.11v4.63a1.79,1.79,0,0,1-.37,1.08,1.6,1.6,0,0,1-1.11.63,6.31,6.31,0,0,0-2.23.8,6.93,6.93,0,0,0-1.94,1.71,8.92,8.92,0,0,0-1.4,2.74,12.6,12.6,0,0,0-.54,3.89,10,10,0,0,0,.68,3.88,8.16,8.16,0,0,0,1.83,2.77,7.77,7.77,0,0,0,2.74,1.71,11.77,11.77,0,0,0,3.37.72c1.44.07,3,.11,4.79.11s3.35,0,4.8-.11a11.62,11.62,0,0,0,3.4-.72,7.82,7.82,0,0,0,2.71-1.71,8.16,8.16,0,0,0,1.83-2.77,10,10,0,0,0,.68-3.88,12.6,12.6,0,0,0-.54-3.89,9.34,9.34,0,0,0-1.4-2.77,6.75,6.75,0,0,0-1.94-1.74A6.31,6.31,0,0,0,1206.18,1025.3Z"/><path class="cls-17" d="M2067.66,983.39c-2.82,6.91-21.56,5-36-4.81s-35-18.74-46.68-26.9c-8.79-6-17.9-28.58-24.81-42.5a79.27,79.27,0,0,0-4.81-8.58c-8.48-2.51-8-11.3-15.81-14.13-9.31-3.24-6.49-8.48-6.49-8.48a33.55,33.55,0,0,1,14.86-2c2.94.42,8.8,8.9,12.25,14.24,3.24,2.41,7.12,5.65,11.3,9.42,11.31,10.05,24.08,23,29.21,29.41,6,7.43,44.59,15.6,55,24.18C2074.36,968.53,2067.66,983.39,2067.66,983.39Z"/><path class="cls-17" d="M2000.79,1089.71l40.5,224.81,14,.92s11-97.91,1.58-131.7,16.3-76.54,9.07-105.85S2000.79,1089.71,2000.79,1089.71Z"/><path class="cls-18" d="M2047.38,965.51,2012,959.76c-1.68-5.74-2.17-13.64-2.19-20.62,0-8.66.66-15.92.66-15.92l28.54-2.75,12.67-1.22C2044.74,932.52,2047.38,965.51,2047.38,965.51Z"/><path class="cls-17" d="M2048.43,926.22s-18.89,16.11-38.6,12.92c0-8.66.66-15.92.66-15.92l28.54-2.75Z"/><path class="cls-18" d="M2027.75,1145.08c-7.16,19.92-13.59,40.2-10.37,56.83a113.8,113.8,0,0,1,1.83,15.19c.26,4.76.28,9.59.08,14.45-1.57,39.19-16.5,79.14-18.81,85.1-.19.51-.3.77-.3.77l-12.41-1.32-5.34-235.89s56.69-22.9,59.85,7.13C2043.91,1102.86,2035.42,1123.76,2027.75,1145.08Z"/><path class="cls-14" d="M2061.64,1158.45s-3.62.53-9,1.11c-10.1,1.11-26.38,2.42-36.44.87-4.8-.73-7.48-8.65-8.75-19.29-2.8-23.57,1.39-60.46,5.19-62.1,5.54-2.37,54.5-.36,54.5-.36S2077.84,1105.12,2061.64,1158.45Z"/><path class="cls-13" d="M2053.43,1159.56c-10.1,1.11-26.38,2.42-36.44.87-4.8-.73-7.48-8.65-8.75-19.29l26.85-43.93,20.15-7.9S2063.33,1123,2053.43,1159.56Z"/><path class="cls-14" d="M1982.22,1079.43s-10.54,46.63-9,83.5c0,0,24,4.74,48.46,0,0,0,40.56-59,37.14-78S1992.5,1073.38,1982.22,1079.43Z"/><path class="cls-18" d="M2001.49,917.54s33,26.14,48.92,5.36,31-31.4,10.59-49-30.6-12.81-37.61-7.17S1993.32,910.21,2001.49,917.54Z"/><path class="cls-19" d="M2090,881.74a7.25,7.25,0,0,0-3.93,0v0c2.66-4.92.67-12.55.67-12.55.66,4.18-3.11,9.11-3.11,9.11-.22-15.51-38.57-25.1-42.11-26.09s-3.11-6.89-3.11-6.89c-7.31,1.48-15.07,10.83-14.85,19.93s7.76,26.58,12.64,26.83,2.66,4.18-.67,9.6,1,20.11,7,25.28c4.82,4.17,7.35.69,10.18-.85a8.49,8.49,0,0,1,2.23-.85c11.18-2.5,22.82-13.55,28.6-27.64a38.13,38.13,0,0,0,2.62-14A19.36,19.36,0,0,1,2090,881.74Z"/><path class="cls-17" d="M2019.29,1231.55c-1.57,39.19-16.5,79.14-18.81,85.1l-9.25-.55c1.19-1.58,19.36-83.37,28-84.55Z"/><path class="cls-20" d="M2056.13,1331h-7.83c-2.62-.36-4.56-1-7.25-1.34-4.09-.48-6,1-6.34,1.34,0,0-33.35,0-33.35,0-.84-1.06,0-3.44.77-5.24a4.62,4.62,0,0,1,3.12-2.52c3.53-.9,10.48-1.7,16.84-6.8,3.59-2.86,17.3-10.53,17.3-10.53h.07c.31,0,1.74.39,8,5,3.22,2.4,8.72-3.39,8.72-3.39a7.06,7.06,0,0,1,1.8,2.16,6.53,6.53,0,0,1,.72,4.51c-.5,2.65,1.1,7.58,2.38,10.91.77,2,1.43,3.45,1.43,3.45S2062.86,1330.27,2056.13,1331Z"/><path class="cls-21" d="M2058,1309.74c-1.87,1.16-5.81,3.46-8.43,3.76-3.53.41-10.14-7.57-10.14-7.57h.07c.31,0,1.74.39,8,5,3.22,2.4,8.72-3.39,8.72-3.39A7.06,7.06,0,0,1,2058,1309.74Z"/><path class="cls-21" d="M2056.13,1331h-7.83c-2.62-.36-4.56-1-7.25-1.34-4.09-.48-6,1-6.34,1.34,0,0-33.35,0-33.35,0-.84-1.06,0-3.44.77-5.24,1-.8,1.3,3.45,1.86,4.13s27.13.24,28.66-.75,6.14-2.71,12.56-1.35c5.58,1.18,13.81-1.85,15.85-2.65.77,2,1.43,3.45,1.43,3.45S2062.86,1330.27,2056.13,1331Z"/><path class="cls-20" d="M2003.71,1331h-7.83c-2.62-.37-4.56-1-7.25-1.35-4.08-.47-6,1-6.34,1.35l-.07.07H1949c-.83-1.06,0-3.51.76-5.31a4.54,4.54,0,0,1,3.11-2.51c3.53-.91,10.48-1.71,16.85-6.81,3.58-2.86,17.3-10.52,17.3-10.52l.07,0c.3,0,1.73.4,8,5.06,3.23,2.4,8.72-3.4,8.72-3.4a7.05,7.05,0,0,1,1.8,2.16,6.5,6.5,0,0,1,.72,4.52c-.5,2.65,1.11,7.57,2.38,10.9.78,2,1.43,3.45,1.43,3.45S2010.45,1330.2,2003.71,1331Z"/><path class="cls-21" d="M2005.54,1309.67c-1.86,1.17-5.81,3.46-8.43,3.76-3.53.41-10.13-7.56-10.13-7.56l.07,0c.3,0,1.73.4,8,5.06,3.23,2.4,8.72-3.4,8.72-3.4A7.05,7.05,0,0,1,2005.54,1309.67Z"/><path class="cls-21" d="M2003.8,1331h-8.13c-2.62-.36-4.35-1.12-7-1.43-4.08-.47-6,1-6.34,1.35l-.07.07H1949c-.83-1.06,0-3.51.76-5.31,1-.79,1.29,3.45,1.85,4.13s27.13.24,28.67-.74,6.13-2.72,12.55-1.36c5.59,1.18,13.82-1.84,15.85-2.65.78,2,1.43,3.45,1.43,3.45S2010.54,1330.29,2003.8,1331Z"/><path class="cls-20" d="M2069.14,1080a1.7,1.7,0,0,1-1.13,1.35c-5,1.78-29.12,9.34-63.33,3.52a169,169,0,0,1-22.46-5.45l5-89.52,3.54-40.75s12.16-6.29,18.61-6.69c0,0,27.27,3.11,37.74.35,0,0,12.37,5.44,17.31,12.36S2078.08,1026.47,2069.14,1080Z"/><path class="cls-22" d="M2004.42,1084.92c-7-1.4-14.31-2.62-22.2-5.49l5.23-103,15.76-2.06S2016.77,1041.21,2004.42,1084.92Z"/><path class="cls-18" d="M2011.46,983.39c-2.93,6.91-21.67,5-36-4.81-1.25-.84-2.51-1.68-3.87-2.51-14-8.79-32.24-17-42.91-24.39-10.05-6.91-20.62-35.69-27.74-48a26,26,0,0,0-1.89-3c-8.37-2.62-7.84-11.3-15.69-14.13-9.32-3.24-6.6-8.48-6.6-8.48a33.93,33.93,0,0,1,14.86-2c3,.42,8.9,8.9,12.25,14.24,2.3,1.78,5.13,4,8.06,6.39,11.93,10.36,26.9,25.43,32.45,32.44,4.29,5.34,25.43,11.09,40.92,17,6.07,2.4,11.31,4.81,14.24,7.22C2018.16,968.53,2011.46,983.39,2011.46,983.39Z"/><path class="cls-20" d="M2011.72,983.6c-2.93,6.9-22.19,5.25-36.53-4.59-1.26-.83-2.51-1.91-3.87-2.75,14.75-11,14.7-25,14-30.23,6.07,2.4,11.47,4.49,14.4,6.9C2018.32,968.21,2011.72,983.6,2011.72,983.6Z"/><path class="cls-23" d="M1971.47,899.66c-1.25,3.45-4.39,7.43-11.3,9.52a79.27,79.27,0,0,0-4.81-8.58c-8.48-2.51-8-11.3-15.81-14.13-9.31-3.24-6.49-8.48-6.49-8.48a33.55,33.55,0,0,1,14.86-2c2.94.42,8.8,8.9,12.25,14.24C1963.41,892.65,1967.29,895.89,1971.47,899.66Z"/><path class="cls-15" d="M1948,893.61c-4,3.09-14.64,13.87-14.64,13.87l-24.56-31.74s12.55-7.94,16.75-11.15c3.81-2.92,15-13.41,15-13.41l24.56,31.75S1952,890.53,1948,893.61Z"/><path class="cls-12" d="M1948,893.61c-4,3.09-14.64,13.87-14.64,13.87l-17.3-22.36s12.55-7.93,16.75-11.14c3.8-2.92,15-13.42,15-13.42l17.29,22.37S1952,890.53,1948,893.61Z"/><rect class="cls-20" x="1952.51" y="846" width="3.21" height="40.14" transform="translate(-121.34 1377.07) rotate(-37.73)"/><rect class="cls-20" x="1918.22" y="872.52" width="3.21" height="40.14" transform="translate(-144.84 1361.22) rotate(-37.72)"/><path class="cls-24" d="M1914.64,880.15l-26,31.88a8.88,8.88,0,0,1-12.46,1.26l-13.07-10.66a9.4,9.4,0,0,1-1.34-13.18L1887.46,858a17,17,0,0,1,17.7-5.62,1.92,1.92,0,0,0,2.17-.82,6.25,6.25,0,0,1,.44-.61l1.37-1.69,9.72,7.93-1.38,1.68a4.21,4.21,0,0,1-.58.61,1.7,1.7,0,0,0-.4,2A17.06,17.06,0,0,1,1914.64,880.15Z"/><path class="cls-25" d="M1914.64,880.15l-26,31.88a8.88,8.88,0,0,1-12.46,1.26l-8.22-6.7a9.39,9.39,0,0,1-1.33-13.18l25.7-31.49a17,17,0,0,1,17.7-5.62,1.92,1.92,0,0,0,.92,0,1.89,1.89,0,0,0,1.26-.86,5.82,5.82,0,0,1,.44-.61l1.37-1.68,4.86,4-1.38,1.68a4.21,4.21,0,0,1-.58.61,1.7,1.7,0,0,0-.4,2A17.06,17.06,0,0,1,1914.64,880.15Z"/><path class="cls-25" d="M1909.26,875.75l-26,31.89a8.9,8.9,0,0,1-12.47,1.26l-2.83-2.31a9.39,9.39,0,0,1-1.33-13.18l25.7-31.49a17,17,0,0,1,17.7-5.62,1.92,1.92,0,0,0,.92,0,1.7,1.7,0,0,0,.18.76A17,17,0,0,1,1909.26,875.75Z"/><rect class="cls-19" x="1879.11" y="863.59" width="24.16" height="35.09" transform="translate(12.77 1789.19) rotate(-50.78)"/><rect class="cls-19" x="1908.18" y="850.13" width="13.93" height="3.3" transform="translate(966.21 -1017.14) rotate(39.1)"/><path class="cls-23" d="M1911.92,896.63c-1.88,2.82-5.23,5.33-11,7a26,26,0,0,0-1.89-3c-8.37-2.62-7.84-11.3-15.69-14.13-9.32-3.24-6.6-8.48-6.6-8.48a33.93,33.93,0,0,1,14.86-2c3,.42,8.9,8.9,12.25,14.24C1906.16,892,1909,894.22,1911.92,896.63Z"/><path class="cls-26" d="M1790.1,867.86c-3.93,0-81.12-3.92-81.12-3.92l53.64,57.2,117.75,25.08Z"/><path class="cls-27" d="M1843.5,941.07c-2.56,7.83-7.07,32.16-7.07,32.16l-62.27-20.38s9.69-22.22,12.41-30.4c2.47-7.44,8-31.87,8-31.87L1856.81,911S1846.06,933.25,1843.5,941.07Z"/><path class="cls-28" d="M1843.5,941.07c-2.56,7.83-7.07,32.16-7.07,32.16l-43.86-14.35s9.69-22.22,12.41-30.41c2.47-7.43,8-31.87,8-31.87L1856.81,911S1846.06,933.25,1843.5,941.07Z"/><rect class="cls-29" x="1793.73" y="895.65" width="65.53" height="5.24" transform="translate(369.98 -523.53) rotate(18.12)"/><rect class="cls-29" x="1771.71" y="962.92" width="65.53" height="5.24" transform="translate(389.81 -513.35) rotate(18.12)"/><path class="cls-30" d="M1855.28,923.59l22.49,34.47a8.89,8.89,0,0,1-2.58,12.26l-14.13,9.22a9.4,9.4,0,0,1-13-2.73l-22.21-34a17,17,0,0,1,0-18.57,1.94,1.94,0,0,0-.12-2.32,5.22,5.22,0,0,1-.45-.6l-1.19-1.82,10.5-6.85,1.18,1.82a6,6,0,0,1,.41.74,1.69,1.69,0,0,0,1.83,1A17.05,17.05,0,0,1,1855.28,923.59Z"/><path class="cls-31" d="M1855.28,923.59l22.49,34.47a8.89,8.89,0,0,1-2.58,12.26l-8.88,5.79a9.39,9.39,0,0,1-13-2.72l-22.21-34a17,17,0,0,1,0-18.57,2.13,2.13,0,0,0,.31-.86,1.9,1.9,0,0,0-.43-1.46,5.22,5.22,0,0,1-.45-.6L1829.4,916l5.25-3.42,1.18,1.82a6,6,0,0,1,.41.74,1.69,1.69,0,0,0,1.83,1A17.05,17.05,0,0,1,1855.28,923.59Z"/><path class="cls-25" d="M1849.46,927.39,1872,961.86a8.89,8.89,0,0,1-2.58,12.26l-3.06,2a9.39,9.39,0,0,1-13-2.72l-22.21-34a17,17,0,0,1,0-18.57,2.13,2.13,0,0,0,.31-.86,1.57,1.57,0,0,0,.78.05A17,17,0,0,1,1849.46,927.39Z"/><rect class="cls-32" x="1831.56" y="934.17" width="35.1" height="24.16" transform="translate(-216.6 1163.99) rotate(-33.12)"/><rect class="cls-27" x="1821.43" y="912.86" width="13.94" height="3.3" transform="translate(-202.16 1151.56) rotate(-33.23)"/><path class="cls-30" d="M1777.8,909l8.35,40.3a8.89,8.89,0,0,1-6.88,10.47l-16.52,3.42a9.39,9.39,0,0,1-11.07-7.27l-8.24-39.81a17,17,0,0,1,6.8-17.28,1.92,1.92,0,0,0,.73-2.2,5.59,5.59,0,0,1-.2-.73l-.44-2.13,12.27-2.54.44,2.13a4.83,4.83,0,0,1,.11.84,1.72,1.72,0,0,0,1.34,1.6A17,17,0,0,1,1777.8,909Z"/><path class="cls-31" d="M1777.8,909l8.35,40.3a8.89,8.89,0,0,1-6.88,10.47l-10.38,2.15a9.39,9.39,0,0,1-11.07-7.27l-8.25-39.81a17,17,0,0,1,6.81-17.28,2,2,0,0,0,.6-.69,1.85,1.85,0,0,0,.13-1.51,6.05,6.05,0,0,1-.2-.73l-.44-2.13,6.13-1.27.44,2.13a4.83,4.83,0,0,1,.11.84,1.72,1.72,0,0,0,1.34,1.6A17,17,0,0,1,1777.8,909Z"/><path class="cls-25" d="M1771,910.41l8.34,40.3a8.89,8.89,0,0,1-6.88,10.47l-3.57.74a9.39,9.39,0,0,1-11.07-7.27l-8.25-39.81a17,17,0,0,1,6.81-17.28,2,2,0,0,0,.6-.69,1.53,1.53,0,0,0,.7.34A17,17,0,0,1,1771,910.41Z"/><rect class="cls-27" x="1746.24" y="915.76" width="35.1" height="24.16" transform="translate(-151.48 376.85) rotate(-11.7)"/><rect class="cls-27" x="1749.13" y="889.08" width="13.94" height="3.3" transform="translate(-145.08 378.09) rotate(-11.8)"/><path class="cls-33" d="M1920.77,1174.86l-13.3,84.57-3.87,24.39L1896,1332.7H1792.55s-13.6-8.38-31.29-19.36c-30.15-18.95-71.81-45.33-76-50-2.72-3-7.44-25.85-12-51.6-6.49-36.73-12.77-79.65-12.77-79.65l37.89-70.75-32.66-78.19,43.13-119.17,53.59,57.21,117.85,25Z"/><path class="cls-34" d="M1907.31,1259.43l-11.51,73.27H1792.39s-13.61-8.38-31.3-19.36l-8.58-25.23,99.43-45.11,11.93-.63Z"/><path class="cls-26" d="M1920.77,1174.86l-13.3,84.57-3.87,24.39c-6.7-3.35-53.38-27.42-51.49-40.82C1854.1,1228.66,1920.77,1174.86,1920.77,1174.86Z"/><polygon class="cls-34" points="1755.26 1226.02 1752.65 1288.16 1852.11 1243 1920.77 1174.86 1857.97 1091.91 1827.88 1171.72 1755.26 1226.02"/><path class="cls-26" d="M1767,1159.29s49.71-14.39,54.29-20.93,36.64-46.45,36.64-46.45-8.51,64.76-14.39,72.62S1767,1159.29,1767,1159.29Z"/><path class="cls-34" d="M1726.3,1112.37l-53.07,99.33c-6.49-36.73-12.77-79.65-12.77-79.65l30-35.37Z"/><path class="cls-26" d="M1726.3,1112.37s-28.79-11.3-65.84,19.68l37.89-70.75Z"/><polygon class="cls-26" points="1665.69 983.11 1753.3 1006 1789.93 1061.82 1665.69 983.11"/><path class="cls-26" d="M1688.06,1260.36s62.8,19,67.38,24.86S1773.1,1316,1773.1,1316Z"/><path class="cls-19" d="M1610.8,561.3c-.07-1.88-1.53-22.19-32.46-23.25,0,0,15.21,1.81,17.84,8.5,0,0-10.36-8.26-18.8-5.6S1564,558.38,1564,563.24s4.63,20.53,10,21.86a16.25,16.25,0,0,0,6.48,0,73.54,73.54,0,0,0-4.15,7.42c-12.35,25.34.38,50.1,10.83,47.37,6.7-1.76,8.6,9.68,8.6,9.68l65.11-52.72S1636.9,547.38,1610.8,561.3Z"/><path class="cls-15" d="M1633.47,1309.74l-11.48,6s-62.42-86.1-69.82-159.4c-1.32-13.09-.88-25.77,2-37.48,0,0-.59-3.36-1.62-9.28-.47-2.77-1.06-6.1-1.72-9.92-2-11.19-4.65-26.5-7.72-43.93-7.07-40.12-16.22-91.41-23.34-129.11l52.38-40.67,30-7.91s6.71,13.12,12.7,75.1c1.11,8.13,2.11,17.1,2.87,26.82a530.1,530.1,0,0,1-2.86,108.57q-2.05,16.15-5.27,33.32c-1.58,8.38-1.82,19.79-1.15,32.9C1611.47,1214.67,1633.47,1309.74,1633.47,1309.74Z"/><path class="cls-12" d="M1617.73,980l-65.2,129.62c-.47-2.77-1.06-6.1-1.72-9.92-2-11.19-4.65-26.5-7.72-43.93-7.07-40.12-16.22-91.41-23.34-129.11l52.38-40.67,30-7.91s6.71,13.12,12.7,75.1C1616,961.26,1617,970.23,1617.73,980Z"/><path class="cls-15" d="M1589.05,894.66l-1.51-12.94c-25.29,6.72-92.85-18.77-92.85-18.77s-24.49,21.54-21.28,73.15c1.57,25.2,4.44,132.25,7.43,163.93,1.09,11.48,2,19.65,2.42,22.91a.08.08,0,0,1,0,0,4.49,4.49,0,0,1-.74,2.8,148.71,148.71,0,0,0-11,23.25c-29.4,78.33,2.69,167.79,2.69,167.79l10.35,2.72s19.6-106.62,35.28-154c2.66-8,5.21-14.37,7.55-18.15,6.82-11,13.15-29,18.9-50.38C1557.1,1056.53,1589.05,894.66,1589.05,894.66Z"/><path class="cls-20" d="M1468.91,1330.92h9.47c3.18-.5,5.52-1.41,8.78-1.84,4.95-.65,7.22,1.38,7.67,1.84a.38.38,0,0,1,.09.1h40.26c1-1.45,0-4.8-.91-7.26a5.72,5.72,0,0,0-3.77-3.45c-4.27-1.24-12.68-2.34-20.39-9.32-4.34-3.91-20.94-14.4-20.94-14.4l-.09,0c-.37,0-2.1.54-9.65,6.91-3.91,3.29-10.56-4.64-10.56-4.64a9.53,9.53,0,0,0-2.19,3,10.05,10.05,0,0,0-.86,6.19c.6,3.62-1.34,10.37-2.88,14.93-.94,2.76-1.73,4.72-1.73,4.72S1460.75,1329.9,1468.91,1330.92Z"/><path class="cls-26" d="M1466.68,1301.79c2.27,1.6,7,4.74,10.21,5.15,4.28.56,12.28-10.35,12.28-10.35l-.09,0c-.37,0-2.1.54-9.65,6.91-3.91,3.29-10.56-4.64-10.56-4.64A9.53,9.53,0,0,0,1466.68,1301.79Z"/><path class="cls-26" d="M1468.91,1330.92h9.47c3.18-.5,5.52-1.41,8.78-1.84,4.95-.65,7.22,1.38,7.67,1.84a.38.38,0,0,1,.09.1h40.26c1-1.45,0-4.8-.91-7.26-1.22-1.09-1.56,4.72-2.24,5.64s-32.85.34-34.7-1-7.43-3.71-15.2-1.86c-6.76,1.62-16.73-2.52-19.19-3.62-.94,2.76-1.73,4.72-1.73,4.72S1460.75,1329.9,1468.91,1330.92Z"/><path class="cls-20" d="M1610.65,1330.92h9.48c3.17-.5,5.52-1.41,8.77-1.84,4.95-.65,7.22,1.38,7.68,1.84a.44.44,0,0,1,.08.1h40.27c1-1.45,0-4.8-.92-7.26a5.72,5.72,0,0,0-3.77-3.45c-4.26-1.24-12.68-2.34-20.39-9.32-4.34-3.91-20.94-14.4-20.94-14.4l-.09,0c-.36,0-2.1.54-9.65,6.91-3.91,3.29-10.56-4.64-10.56-4.64a9.42,9.42,0,0,0-2.18,3,10,10,0,0,0-.87,6.19c.6,3.62-1.34,10.37-2.88,14.93-.94,2.76-1.73,4.72-1.73,4.72S1602.49,1329.9,1610.65,1330.92Z"/><path class="cls-26" d="M1608.43,1301.79c2.26,1.6,7,4.74,10.2,5.15,4.28.56,12.28-10.35,12.28-10.35l-.09,0c-.36,0-2.1.54-9.65,6.91-3.91,3.29-10.56-4.64-10.56-4.64A9.42,9.42,0,0,0,1608.43,1301.79Z"/><path class="cls-26" d="M1610.65,1330.92h9.48c3.17-.5,5.52-1.41,8.77-1.84,4.95-.65,7.22,1.38,7.68,1.84a.44.44,0,0,1,.08.1h40.27c1-1.45,0-4.8-.92-7.26-1.22-1.09-1.56,4.72-2.24,5.64s-32.84.34-34.7-1-7.43-3.71-15.2-1.86c-6.76,1.62-16.73-2.52-19.19-3.62-.94,2.76-1.73,4.72-1.73,4.72S1602.49,1329.9,1610.65,1330.92Z"/><path class="cls-17" d="M1792.66,854.06c-3.15-3.14-22.09-2.41-22.09-2.41s-10.47-4.19-23.34-9.84c-17.9-7.95-40.4-18.63-45.32-24.07-11.41-12.67-25.12-55.16-38-83.21q-1.74-3.93-3.46-7.54a2.49,2.49,0,0,0-.42-.73c-.63-1.15-1.15-2.2-1.67-3.14,0-.1-.11-.21-.21-.32a48.33,48.33,0,0,0-7.22-10.67V712c-2.83-3-5.55-4.3-8.06-3.25a36.15,36.15,0,0,0-10,8.48,7.91,7.91,0,0,0-1.46,1.78,43.67,43.67,0,0,0-7.75,15.49,54,54,0,0,0-1.77,17.16c.41,10.78,5.75,24.29,13.39,37.89a17.84,17.84,0,0,0,1.05,1.89c14.65,25.64,37.15,51.28,50.87,59.66,9,5.54,31.61,8.89,50.65,10.78,12.67,1.36,23.87,2,28.47,2.3,2,2.2,16.44,18.73,21.88,13.92C1794.22,873,1795.8,857.2,1792.66,854.06Z"/><path class="cls-18" d="M1637.36,737.68a78.94,78.94,0,0,1-29.13,6.82c-43.47,2.38-53.34-35.73-55.13-61a36.42,36.42,0,0,1,14.91-1.89c3.09.17,6.3.49,9,.81,5.32-2.77,14.87-16.27,20.39-38.84l1.87.87,31.37,14.75s-3.33,10.2-5.79,20c-1.92,7.65-3.3,15-2.15,17.1,2.48,1,4,1.63,4,1.63a.1.1,0,0,0,0,0A216.52,216.52,0,0,1,1637.36,737.68Z"/><path class="cls-14" d="M1648.23,766.2c-.33.87-.69,1.71-1.09,2.58-11,23.72-31.39,121.94-31.39,121.94-4.43,17.59-132.72-3.46-133.07-19.54-4.77-17,17-44.45,29.2-58.19a39.23,39.23,0,0,0,4.11-5.53,38.55,38.55,0,0,0,5.56-16.22c2.36-22.35,1.52-43.33,1.68-56.39,0-.26,0-.5,0-.75,2.4-1.78,4.71-3.41,6.87-5a61.71,61.71,0,0,0,8.35-6.93c2.36-2.49,3.84-5,4-7.9a40.86,40.86,0,0,0-.17-6.62c-.1-1-.24-2.1-.39-3.15a90,90,0,0,0-6.3-21c11.66-4.72,32.4-1.91,32.4-1.91s0,1.15,0,3c-.07,7.57,0,27,2.43,30.71,3,4.59,58.6,24.67,61.54,18.45s-5-34.79-5.32-35.87a.1.1,0,0,1,0,0c18.61,7.31,25.26,13.44,25.26,13.44C1640.66,718.59,1656.9,743.2,1648.23,766.2Z"/><path class="cls-17" d="M1630.6,659.18s-3.33,10.2-5.79,20c-18.33-5.12-23.9-24.39-25.58-34.72Z"/><path class="cls-18" d="M1634.46,670s-43.86-10.15-37.12-37.37,5.62-46.87,33.92-41.53,31.14,17.06,31.1,26.69S1646.05,671.92,1634.46,670Z"/><path class="cls-19" d="M1664.82,602.31c-4.71-9.86-10.26-9.33-13.74-7.59-20.61-19.07-43.64-3.62-43.64-3.62-7.78,18.79-21.83,26.61-21.83,26.61s6.74,6.9,26.27,6.75c6,0,12-2.78,17.42-6.56A104.62,104.62,0,0,1,1606.43,635c24.45-4.68,40.85-33,42.53-36,2.07,3.06,6,9.57,6.36,15.07.45,7.47-2.11,22,2.16,22.53C1657.48,636.57,1671.9,617.11,1664.82,602.31Z"/><path class="cls-14" d="M1651.88,711.32s10.56,18.42,12.14,23.16c0,0-13.69-.53-19.23,10C1644.79,744.49,1643.47,713.8,1651.88,711.32Z"/><path class="cls-13" d="M1579.24,857.72c-26.75-.28-49.4-28.06-63.25-50.26a38.55,38.55,0,0,0,5.56-16.22c2.36-22.35,1.52-43.33,1.68-56.39,0-.26,0-.5,0-.75,2.4-1.78,4.71-3.41,6.87-5a61.71,61.71,0,0,0,8.35-6.93C1560.37,759.22,1615.51,858.1,1579.24,857.72Z"/><path class="cls-18" d="M1728.49,878.55s-17.37-12.46-27.73-10c-9.21,2.09-28.89-2.09-32.76-2.93h0c-4.6-2.51-10.15-5.55-16-8.9-14.13-7.95-30.35-17.69-41.45-25.75-6.38-4.6-11.2-8.68-12.87-11.61-2.61-4.5-5.54-11.62-8.79-20.41-1.68-4.61-3.45-9.63-5.23-15-3.15-8.79-6.28-18.32-9.53-27.84-5.84-17.33-12.11-34.77-18.06-48.26-17.62-6.18-31.13,3.33-35.67,7.22,0,1-.06,1.93-.07,2.94a44.06,44.06,0,0,0,.11,5.34,112.76,112.76,0,0,0,2.83,18.95,286.57,286.57,0,0,0,11.92,39.77c1.47,3.77,2.93,7.63,4.5,11.51,11.31,28.06,25.86,54.22,38.1,63.11a12.16,12.16,0,0,0,1.47,1.05c5.13,3.24,12.67,6.49,21.35,9.53,12.36,4.19,27,8,40.09,11.09h.1c7.64,1.67,14.66,3.24,20.51,4.4,0,0,1.26.3,3.47.73h0a233.39,233.39,0,0,1,27.69,8.47c15.07,6,24.49-3.88,31.19-6.7S1728.49,878.55,1728.49,878.55Z"/><path class="cls-14" d="M1556,707.78c-20.15-5.56-35.7,10.17-35.7,10.17.26-30.3,15.34-34.45,15.34-34.45C1541.68,681,1548.71,691.5,1556,707.78Z"/><path class="cls-23" d="M1724.33,885.56c-6.69,2.82-16.11,12.66-31.19,6.69a235,235,0,0,0-27.73-8.47c-2.2-.42-3.46-.74-3.46-.74-5.86-1.15-12.87-2.72-20.51-4.39,6.28-7.75,9.84-17.58,11.2-21.67,5.86,3.35,11.41,6.39,16,8.9,3.87.84,23.55,5,32.76,2.93,10.36-2.41,27.74,10.05,27.74,10.05S1731,882.84,1724.33,885.56Z"/><path class="cls-23" d="M1787.61,878.13c-5.45,4.81-19.89-11.72-21.88-13.92-4.6-.31-15.81-.94-28.47-2.3,4-6.49,7.64-15.81,9.32-20.1,12.87,5.65,23.34,9.84,23.34,9.84s18.94-.73,22.08,2.41S1793.57,873,1787.61,878.13Z"/><rect class="cls-35" y="1331.12" width="2859.06" height="7.58" rx="3.24"/><path class="cls-12" d="M1042.33,1270.19h-7.83c-10.49,0-19,14-19,31.35s8.51,31.35,19,31.35h7.83c10.5,0,19-14,19-31.35S1052.83,1270.19,1042.33,1270.19Z"/><path class="cls-36" d="M1020.18,1313.32H915a20.59,20.59,0,0,1-20.57-19.46L875.5,980.49h184.17l-18.93,313.37A20.59,20.59,0,0,1,1020.18,1313.32Z"/><path class="cls-37" d="M1050.18,1313.32H945c-10.94,0-20.57-1.64-20.57-19.46L905.5,980.49h184.17l-18.93,313.37C1070.74,1313.32,1061.11,1313.32,1050.18,1313.32Z"/><path class="cls-12" d="M878.79,956.95H1052a12.12,12.12,0,0,1,12.12,12.12v11.37a0,0,0,0,1,0,0H866.67a0,0,0,0,1,0,0V969.07A12.12,12.12,0,0,1,878.79,956.95Z"/><path class="cls-15" d="M914.79,956.95H1088a12.12,12.12,0,0,1,12.12,12.12v11.37a0,0,0,0,1,0,0H902.67a0,0,0,0,1,0,0V969.07A12.12,12.12,0,0,1,914.79,956.95Z"/><path class="cls-15" d="M902.33,1270.19H894.5c-10.49,0-19,14-19,31.35s8.51,31.35,19,31.35h7.83c10.5,0,19-14,19-31.35S912.83,1270.19,902.33,1270.19Z"/><path class="cls-12" d="M908.44,1301.54c0,12.7-6.24,23-13.94,23s-13.93-10.3-13.93-23,6.24-23,13.93-23S908.44,1288.84,908.44,1301.54Z"/><path class="cls-16" d="M991.62,1238.16a18.12,18.12,0,0,1-6.26-1.25,13.54,13.54,0,0,1-4.85-3.32,14.88,14.88,0,0,1-3.14-5.33,26,26,0,0,1,.17-15.59,16.33,16.33,0,0,1,3.08-5.14,10.68,10.68,0,0,1,3.72-2.69,11.56,11.56,0,0,1,3.22-.88,1.26,1.26,0,0,1,1.12.43,1.64,1.64,0,0,1,.42,1.11v4.62a1.48,1.48,0,0,1-.31,1,2.2,2.2,0,0,1-.66.55c-.15.07-.48.27-1,.6a6.45,6.45,0,0,0-1.59,1.54,10.49,10.49,0,0,0-1.49,2.77,12,12,0,0,0-.66,4.28,9.82,9.82,0,0,0,2.32,6.85,8.4,8.4,0,0,0,6.19,2.74c1.45.08,3,.12,4.66.12s3.2,0,4.65-.12q4.74-.17,6.88-2.74a10.34,10.34,0,0,0,2.14-6.85,15.71,15.71,0,0,0-.45-3.88,8.1,8.1,0,0,0-1.49-3.06,6.86,6.86,0,0,0-2.71-2,10.71,10.71,0,0,0-4.14-.71H1001v7a1.57,1.57,0,0,1-1.54,1.54h-4.05a1.57,1.57,0,0,1-1.55-1.54V1205a1.57,1.57,0,0,1,1.55-1.54h6.28a17.64,17.64,0,0,1,6.31,1.09,13.1,13.1,0,0,1,5,3.25,15,15,0,0,1,3.26,5.43,25.35,25.35,0,0,1,0,15.13,14.48,14.48,0,0,1-3.2,5.31,13.77,13.77,0,0,1-4.94,3.23,19.08,19.08,0,0,1-6.31,1.22q-1.08.06-2.4.09c-.87,0-1.77,0-2.68,0s-1.81,0-2.68,0S992.34,1238.2,991.62,1238.16Z"/><path class="cls-16" d="M1009.66,1169.75a1.46,1.46,0,0,1,.46-1.08,1.48,1.48,0,0,1,1.08-.46h4.06a1.48,1.48,0,0,1,1.08.46,1.46,1.46,0,0,1,.46,1.08v25a1.57,1.57,0,0,1-1.54,1.54H978.37a1.52,1.52,0,0,1-1.09-.46,1.51,1.51,0,0,1-.45-1.08v-4.63a1.54,1.54,0,0,1,1.54-1.54h31.29Z"/><path class="cls-16" d="M976.83,1143.94a1.81,1.81,0,0,1,.48-1.37,4.28,4.28,0,0,1,1.46-.8l36.09-14a1.56,1.56,0,0,1,.4,0,1.55,1.55,0,0,1,1.54,1.54v4.11a2.13,2.13,0,0,1-.49,1.6,3,3,0,0,1-.94.63l-6.34,2.45v18l6.34,2.45a2.82,2.82,0,0,1,.94.63,2.11,2.11,0,0,1,.49,1.6v4.11a1.57,1.57,0,0,1-1.54,1.54,1.2,1.2,0,0,1-.4-.06l-36.09-14a4.12,4.12,0,0,1-1.46-.79,1.84,1.84,0,0,1-.48-1.38Zm25.06-3.14-16.27,6.28,16.27,6.29Z"/><path class="cls-16" d="M976.26,1109.34a20.37,20.37,0,0,1,1-6.74,16.91,16.91,0,0,1,2.57-4.85,11,11,0,0,1,3.4-2.94,8.77,8.77,0,0,1,3.51-1.12,1.28,1.28,0,0,1,1.12.43,1.68,1.68,0,0,1,.43,1.11v4a2.36,2.36,0,0,1-.38,1.46,3.63,3.63,0,0,1-1,.88,7.5,7.5,0,0,0-2.48,2.6,10.16,10.16,0,0,0-1.06,5.17,12.4,12.4,0,0,0,.32,2.83,8.22,8.22,0,0,0,.91,2.34,4.92,4.92,0,0,0,1.46,1.57,3.43,3.43,0,0,0,1.94.57,3.84,3.84,0,0,0,2.14-.54,4.39,4.39,0,0,0,1.43-1.83,18.56,18.56,0,0,0,1.11-3.4q.51-2.12,1.2-5.25a37.73,37.73,0,0,1,1.74-5.91,13.93,13.93,0,0,1,2.4-4.06,9.08,9.08,0,0,1,3.23-2.34,10.73,10.73,0,0,1,4.17-.77,10.16,10.16,0,0,1,4.76,1.14A10.86,10.86,0,0,1,1014,1097a16.48,16.48,0,0,1,2.49,5.19,24.65,24.65,0,0,1,.91,6.91,23.9,23.9,0,0,1-.77,6.11,17.69,17.69,0,0,1-2.23,5.17,12.31,12.31,0,0,1-3.51,3.63,9.3,9.3,0,0,1-4.57,1.54,1.26,1.26,0,0,1-1.11-.43,1.6,1.6,0,0,1-.43-1.11v-4a2.69,2.69,0,0,1,.34-1.49,2.61,2.61,0,0,1,1-.85,11.44,11.44,0,0,0,1.49-1,5.44,5.44,0,0,0,1.31-1.54,9.55,9.55,0,0,0,.94-2.43,14.85,14.85,0,0,0,.37-3.63,21,21,0,0,0-.25-3.31,10,10,0,0,0-.86-2.8,5.9,5.9,0,0,0-1.49-1.94,3.32,3.32,0,0,0-2.19-.74,2.8,2.8,0,0,0-2.06.8,6.39,6.39,0,0,0-1.37,2.43,34.79,34.79,0,0,0-1.09,4q-.51,2.4-1.31,5.54a30,30,0,0,1-1.63,5,11.86,11.86,0,0,1-2.31,3.54,8.68,8.68,0,0,1-3.23,2.08,12.66,12.66,0,0,1-4.42.69,10,10,0,0,1-4.74-1.15,11.16,11.16,0,0,1-3.71-3.14,15.36,15.36,0,0,1-2.43-4.76A19.54,19.54,0,0,1,976.26,1109.34Z"/><path class="cls-16" d="M976.26,1072.34a20.32,20.32,0,0,1,1-6.74,17.11,17.11,0,0,1,2.57-4.86,11.32,11.32,0,0,1,3.4-2.94,8.91,8.91,0,0,1,3.51-1.11,1.26,1.26,0,0,1,1.12.43,1.64,1.64,0,0,1,.43,1.11v4a2.38,2.38,0,0,1-.38,1.46,3.8,3.8,0,0,1-1,.88,7.5,7.5,0,0,0-2.48,2.6,10.16,10.16,0,0,0-1.06,5.17,12.24,12.24,0,0,0,.32,2.82,8,8,0,0,0,.91,2.34,4.81,4.81,0,0,0,1.46,1.57,3.43,3.43,0,0,0,1.94.57,3.84,3.84,0,0,0,2.14-.54,4.29,4.29,0,0,0,1.43-1.82,18.56,18.56,0,0,0,1.11-3.4q.51-2.12,1.2-5.26a38.39,38.39,0,0,1,1.74-5.91,14,14,0,0,1,2.4-4,8.84,8.84,0,0,1,3.23-2.34,10.55,10.55,0,0,1,4.17-.77,10.16,10.16,0,0,1,4.76,1.14A10.86,10.86,0,0,1,1014,1060a16.38,16.38,0,0,1,2.49,5.19,24.65,24.65,0,0,1,.91,6.91,24,24,0,0,1-.77,6.11,17.93,17.93,0,0,1-2.23,5.17,12.27,12.27,0,0,1-3.51,3.62,9.22,9.22,0,0,1-4.57,1.55,1.29,1.29,0,0,1-1.11-.43,1.64,1.64,0,0,1-.43-1.12v-4a2.67,2.67,0,0,1,.34-1.49,2.52,2.52,0,0,1,1-.85,10.59,10.59,0,0,0,1.49-1,5.17,5.17,0,0,0,1.31-1.54,9.33,9.33,0,0,0,.94-2.42,14.91,14.91,0,0,0,.37-3.63,21,21,0,0,0-.25-3.31,9.91,9.91,0,0,0-.86-2.8,5.8,5.8,0,0,0-1.49-1.94,3.26,3.26,0,0,0-2.19-.74,2.76,2.76,0,0,0-2.06.8,6.42,6.42,0,0,0-1.37,2.42,35.6,35.6,0,0,0-1.09,4c-.34,1.6-.78,3.44-1.31,5.54a29.53,29.53,0,0,1-1.63,5,11.61,11.61,0,0,1-2.31,3.54,8.58,8.58,0,0,1-3.23,2.09,12.91,12.91,0,0,1-4.42.68,10.06,10.06,0,0,1-4.74-1.14,11.28,11.28,0,0,1-3.71-3.14,15.31,15.31,0,0,1-2.43-4.77A19.43,19.43,0,0,1,976.26,1072.34Z"/><path class="cls-12" d="M837.63,1270.19H829.8c-10.5,0-19,14-19,31.35s8.5,31.35,19,31.35h7.83c10.49,0,19-14,19-31.35S848.12,1270.19,837.63,1270.19Z"/><path class="cls-38" d="M815.47,1313.32H710.29a20.6,20.6,0,0,1-20.57-19.46L670.8,980.49H855L836,1293.86A20.59,20.59,0,0,1,815.47,1313.32Z"/><path class="cls-33" d="M845.47,1313.32H740.29c-10.94,0-20.57-1.64-20.57-19.46L700.8,980.49H885L866,1293.86C866,1313.32,856.4,1313.32,845.47,1313.32Z"/><path class="cls-12" d="M674.08,956.95H847.34a12.12,12.12,0,0,1,12.12,12.12v11.37a0,0,0,0,1,0,0H662a0,0,0,0,1,0,0V969.07A12.12,12.12,0,0,1,674.08,956.95Z"/><path class="cls-15" d="M710.08,956.95H883.34a12.12,12.12,0,0,1,12.12,12.12v11.37a0,0,0,0,1,0,0H698a0,0,0,0,1,0,0V969.07A12.12,12.12,0,0,1,710.08,956.95Z"/><path class="cls-15" d="M697.63,1270.19H689.8c-10.5,0-19,14-19,31.35s8.5,31.35,19,31.35h7.83c10.49,0,19-14,19-31.35S708.12,1270.19,697.63,1270.19Z"/><path class="cls-12" d="M703.73,1301.54c0,12.7-6.24,23-13.93,23s-13.94-10.3-13.94-23,6.24-23,13.94-23S703.73,1288.84,703.73,1301.54Z"/><path class="cls-16" d="M770.12,1214.89q0-6.92,3.25-10.74t9.54-3.82q6.29,0,9.59,3.82t3.31,10.74V1224h12.74a1.55,1.55,0,0,1,1.54,1.54v4.62a1.55,1.55,0,0,1-1.54,1.54H771.66a1.54,1.54,0,0,1-1.54-1.54Zm18.56,9.14v-8.85a9.27,9.27,0,0,0-1.29-5.2c-.85-1.29-2.35-1.94-4.48-1.94s-3.61.65-4.43,1.94a9.71,9.71,0,0,0-1.22,5.2V1224Z"/><path class="cls-16" d="M770.12,1177.71a1.83,1.83,0,0,1,.48-1.37,4.12,4.12,0,0,1,1.46-.79l36.09-14a1.2,1.2,0,0,1,.4-.06,1.55,1.55,0,0,1,1.54,1.54v4.11a2.11,2.11,0,0,1-.49,1.6,2.82,2.82,0,0,1-.94.63l-6.34,2.45v18.05l6.34,2.45a3,3,0,0,1,.94.63,2.13,2.13,0,0,1,.49,1.6v4.11a1.55,1.55,0,0,1-1.54,1.54,1.22,1.22,0,0,1-.4,0l-36.09-14a4.28,4.28,0,0,1-1.46-.8,1.81,1.81,0,0,1-.48-1.37Zm25.07-3.14-16.28,6.29,16.28,6.28Z"/><path class="cls-16" d="M770.12,1139.46q0-6.92,3.25-10.74t9.54-3.83q6.29,0,9.59,3.83t3.31,10.74v9.13h12.74a1.57,1.57,0,0,1,1.54,1.54v4.63a1.55,1.55,0,0,1-1.54,1.54H771.66a1.54,1.54,0,0,1-1.54-1.54Zm18.56,9.13v-8.85a9.23,9.23,0,0,0-1.29-5.19c-.85-1.3-2.35-2-4.48-2s-3.61.65-4.43,2a9.68,9.68,0,0,0-1.22,5.19v8.85Z"/><path class="cls-16" d="M803,1092.06a1.44,1.44,0,0,1,.46-1.08,1.46,1.46,0,0,1,1.08-.46h4.06a1.57,1.57,0,0,1,1.54,1.54v25.07a1.57,1.57,0,0,1-1.54,1.54H771.66a1.55,1.55,0,0,1-1.54-1.54v-24.61a1.54,1.54,0,0,1,1.54-1.54h4.05a1.55,1.55,0,0,1,1.55,1.54V1111h9.08v-17.19a1.55,1.55,0,0,1,1.54-1.54h4a1.55,1.55,0,0,1,1.54,1.54V1111H803Z"/><path class="cls-16" d="M770.12,1067.16q0-7.12,3.31-10.85t9.19-3.71a12.72,12.72,0,0,1,7.11,1.92,11.29,11.29,0,0,1,4.37,5.62l14.11-7.88a1.42,1.42,0,0,1,.62-.17,1.26,1.26,0,0,1,1.26,1.26v4.85a2.29,2.29,0,0,1-.54,1.68,3.84,3.84,0,0,1-1,.77l-13.31,7.48v7.6h13.31a1.57,1.57,0,0,1,1.54,1.54v4.63a1.57,1.57,0,0,1-1.54,1.54H771.66a1.55,1.55,0,0,1-1.54-1.54Zm18,8.57v-8.28a10.15,10.15,0,0,0-1.15-5.2c-.76-1.29-2.2-1.94-4.34-1.94s-3.56.65-4.28,1.94a10.72,10.72,0,0,0-1.08,5.2v8.28Z"/></g></g></svg>